<svg xmlns="http://www.w3.org/2000/svg" xmlns:xlink="http://www.w3.org/1999/xlink" width="500" zoomAndPan="magnify" viewBox="0 0 375 374.999991" height="500" preserveAspectRatio="xMidYMid meet" version="1.0"><defs><g/><clipPath id="fc6eb9f47e"><path d="M 20.160156 166.308594 L 354.839844 166.308594 L 354.839844 206.523438 L 20.160156 206.523438 Z M 20.160156 166.308594 " clip-rule="nonzero"/></clipPath></defs><rect x="-37.5" width="450" fill="#ffffff" y="-37.499999" height="449.999989" fill-opacity="1"/><rect x="-37.5" width="450" fill="#ffffff" y="-37.499999" height="449.999989" fill-opacity="1"/><rect x="-37.5" width="450" fill="#fbfaf9" y="-37.499999" height="449.999989" fill-opacity="1"/><g fill="#231f20" fill-opacity="1"><g transform="translate(40.170652, 259.616186)"><g><path d="M 127.671875 -18.945312 L 73.308594 -89.601562 L 106.421875 -123.777344 C 112.796875 -130.152344 117.402344 -134.753906 126.253906 -141.660156 L 117.046875 -141.660156 C 112.441406 -134.753906 108.195312 -130.328125 101.109375 -123.246094 L 44.09375 -64.988281 L 44.09375 -103.765625 C 44.09375 -120.234375 44.625 -128.203125 46.039062 -141.660156 L 12.394531 -141.660156 C 13.8125 -128.203125 14.34375 -120.234375 14.34375 -103.765625 L 14.34375 -37.894531 C 14.34375 -21.425781 13.8125 -13.457031 12.394531 0 L 46.039062 0 C 44.625 -13.457031 44.09375 -21.425781 44.09375 -37.894531 L 44.09375 -59.675781 L 51.882812 -67.644531 L 89.953125 -18.945312 C 96.683594 -9.917969 99.164062 -6.90625 102.527344 0 L 146.441406 0 C 137.765625 -6.730469 133.691406 -11.15625 127.671875 -18.945312 Z M 127.671875 -18.945312 "/></g></g></g><g fill="#231f20" fill-opacity="1"><g transform="translate(183.065736, 259.616186)"><g><path d="M 127.671875 -18.945312 L 73.308594 -89.601562 L 106.421875 -123.777344 C 112.796875 -130.152344 117.402344 -134.753906 126.253906 -141.660156 L 117.046875 -141.660156 C 112.441406 -134.753906 108.195312 -130.328125 101.109375 -123.246094 L 44.09375 -64.988281 L 44.09375 -103.765625 C 44.09375 -120.234375 44.625 -128.203125 46.039062 -141.660156 L 12.394531 -141.660156 C 13.8125 -128.203125 14.34375 -120.234375 14.34375 -103.765625 L 14.34375 -37.894531 C 14.34375 -21.425781 13.8125 -13.457031 12.394531 0 L 46.039062 0 C 44.625 -13.457031 44.09375 -21.425781 44.09375 -37.894531 L 44.09375 -59.675781 L 51.882812 -67.644531 L 89.953125 -18.945312 C 96.683594 -9.917969 99.164062 -6.90625 102.527344 0 L 146.441406 0 C 137.765625 -6.730469 133.691406 -11.15625 127.671875 -18.945312 Z M 127.671875 -18.945312 "/></g></g></g><g clip-path="url(#fc6eb9f47e)"><path fill="#fbfaf9" d="M 20.160156 166.308594 L 354.777344 166.308594 L 354.777344 207.8125 L 20.160156 207.8125 Z M 20.160156 166.308594 " fill-opacity="1" fill-rule="nonzero"/></g><g fill="#231f20" fill-opacity="1"><g transform="translate(28.21416, 190.540607)"><g><path d="M 6.921875 0 L 4.078125 -3.828125 L 2.609375 -2.203125 L 2.609375 0 L 1.140625 0 L 1.140625 -8.671875 L 2.609375 -8.671875 L 2.609375 -4.1875 L 6.734375 -8.671875 L 8.46875 -8.671875 L 5.109375 -4.96875 L 8.6875 0 Z M 6.921875 0 "/></g></g></g><g fill="#231f20" fill-opacity="1"><g transform="translate(47.030858, 190.540607)"><g><path d="M 6.734375 -1.953125 L 2.359375 -1.953125 L 1.53125 0 L 0.015625 0 L 3.84375 -8.671875 L 5.34375 -8.671875 L 9.125 0 L 7.578125 0 Z M 6.1875 -3.265625 L 4.546875 -7.109375 L 2.90625 -3.265625 Z M 6.1875 -3.265625 "/></g></g></g><g fill="#231f20" fill-opacity="1"><g transform="translate(66.095297, 190.540607)"><g><path d="M 3.984375 -8.734375 C 5.109375 -8.734375 6.125 -8.4375 7.03125 -7.84375 L 6.421875 -6.546875 C 5.535156 -7.085938 4.6875 -7.359375 3.875 -7.359375 C 3.4375 -7.359375 3.09375 -7.28125 2.84375 -7.125 C 2.59375 -6.96875 2.46875 -6.742188 2.46875 -6.453125 C 2.46875 -6.160156 2.582031 -5.914062 2.8125 -5.71875 C 3.039062 -5.519531 3.328125 -5.367188 3.671875 -5.265625 C 4.023438 -5.171875 4.40625 -5.050781 4.8125 -4.90625 C 5.21875 -4.769531 5.59375 -4.617188 5.9375 -4.453125 C 6.28125 -4.296875 6.566406 -4.046875 6.796875 -3.703125 C 7.023438 -3.359375 7.140625 -2.941406 7.140625 -2.453125 C 7.140625 -1.691406 6.832031 -1.082031 6.21875 -0.625 C 5.613281 -0.175781 4.828125 0.046875 3.859375 0.046875 C 3.203125 0.046875 2.5625 -0.0703125 1.9375 -0.3125 C 1.320312 -0.5625 0.785156 -0.898438 0.328125 -1.328125 L 0.953125 -2.59375 C 1.390625 -2.1875 1.867188 -1.875 2.390625 -1.65625 C 2.921875 -1.4375 3.421875 -1.328125 3.890625 -1.328125 C 4.398438 -1.328125 4.796875 -1.421875 5.078125 -1.609375 C 5.367188 -1.796875 5.515625 -2.050781 5.515625 -2.375 C 5.515625 -2.675781 5.394531 -2.925781 5.15625 -3.125 C 4.925781 -3.332031 4.640625 -3.484375 4.296875 -3.578125 C 3.953125 -3.671875 3.578125 -3.785156 3.171875 -3.921875 C 2.765625 -4.054688 2.390625 -4.195312 2.046875 -4.34375 C 1.703125 -4.5 1.410156 -4.742188 1.171875 -5.078125 C 0.941406 -5.421875 0.828125 -5.832031 0.828125 -6.3125 C 0.828125 -7.050781 1.113281 -7.640625 1.6875 -8.078125 C 2.269531 -8.515625 3.035156 -8.734375 3.984375 -8.734375 Z M 3.984375 -8.734375 "/></g></g></g><g fill="#231f20" fill-opacity="1"><g transform="translate(83.722866, 190.540607)"><g><path d="M 8.65625 0 L 7.203125 0 L 7.203125 -3.59375 L 2.609375 -3.59375 L 2.609375 0 L 1.140625 0 L 1.140625 -8.671875 L 2.609375 -8.671875 L 2.609375 -4.90625 L 7.203125 -4.90625 L 7.203125 -8.671875 L 8.65625 -8.671875 Z M 8.65625 0 "/></g></g></g><g fill="#231f20" fill-opacity="1"><g transform="translate(103.443804, 190.540607)"><g><path d="M 4.703125 -2.890625 L 4.703125 0 L 3.25 0 L 3.25 -2.84375 L 0.015625 -8.671875 L 1.484375 -8.671875 L 3.96875 -4.453125 L 6.390625 -8.671875 L 7.875 -8.671875 Z M 4.703125 -2.890625 "/></g></g></g><g fill="#231f20" fill-opacity="1"><g transform="translate(121.257173, 190.540607)"><g><path d="M 6.734375 -1.953125 L 2.359375 -1.953125 L 1.53125 0 L 0.015625 0 L 3.84375 -8.671875 L 5.34375 -8.671875 L 9.125 0 L 7.578125 0 Z M 6.1875 -3.265625 L 4.546875 -7.109375 L 2.90625 -3.265625 Z M 6.1875 -3.265625 "/></g></g></g><g fill="#231f20" fill-opacity="1"><g transform="translate(140.321609, 190.540607)"><g><path d="M 1.140625 -8.671875 L 4.59375 -8.671875 C 5.6875 -8.671875 6.53125 -8.410156 7.125 -7.890625 C 7.726562 -7.378906 8.03125 -6.65625 8.03125 -5.71875 C 8.03125 -4.726562 7.726562 -3.960938 7.125 -3.421875 C 6.53125 -2.878906 5.6875 -2.609375 4.59375 -2.609375 L 2.609375 -2.609375 L 2.609375 0 L 1.140625 0 Z M 2.609375 -7.359375 L 2.609375 -3.921875 L 4.53125 -3.921875 C 5.925781 -3.921875 6.625 -4.503906 6.625 -5.671875 C 6.625 -6.796875 5.925781 -7.359375 4.53125 -7.359375 Z M 2.609375 -7.359375 "/></g></g></g><g fill="#231f20" fill-opacity="1"><g transform="translate(158.580896, 190.540607)"><g/></g></g><g fill="#231f20" fill-opacity="1"><g transform="translate(171.69967, 190.540607)"><g><path d="M 6.921875 0 L 4.078125 -3.828125 L 2.609375 -2.203125 L 2.609375 0 L 1.140625 0 L 1.140625 -8.671875 L 2.609375 -8.671875 L 2.609375 -4.1875 L 6.734375 -8.671875 L 8.46875 -8.671875 L 5.109375 -4.96875 L 8.6875 0 Z M 6.921875 0 "/></g></g></g><g fill="#231f20" fill-opacity="1"><g transform="translate(190.516364, 190.540607)"><g><path d="M 6.734375 -1.953125 L 2.359375 -1.953125 L 1.53125 0 L 0.015625 0 L 3.84375 -8.671875 L 5.34375 -8.671875 L 9.125 0 L 7.578125 0 Z M 6.1875 -3.265625 L 4.546875 -7.109375 L 2.90625 -3.265625 Z M 6.1875 -3.265625 "/></g></g></g><g fill="#231f20" fill-opacity="1"><g transform="translate(209.580801, 190.540607)"><g><path d="M 4.984375 -8.703125 C 5.585938 -8.703125 6.179688 -8.582031 6.765625 -8.34375 C 7.347656 -8.113281 7.851562 -7.789062 8.28125 -7.375 L 7.421875 -6.3125 C 7.109375 -6.644531 6.734375 -6.910156 6.296875 -7.109375 C 5.867188 -7.304688 5.4375 -7.40625 5 -7.40625 C 4.132812 -7.40625 3.398438 -7.109375 2.796875 -6.515625 C 2.203125 -5.929688 1.90625 -5.210938 1.90625 -4.359375 C 1.90625 -3.503906 2.203125 -2.78125 2.796875 -2.1875 C 3.398438 -1.59375 4.132812 -1.296875 5 -1.296875 C 5.90625 -1.296875 6.710938 -1.640625 7.421875 -2.328125 L 8.296875 -1.359375 C 7.847656 -0.921875 7.328125 -0.570312 6.734375 -0.3125 C 6.140625 -0.0625 5.539062 0.0625 4.9375 0.0625 C 3.65625 0.0625 2.582031 -0.359375 1.71875 -1.203125 C 0.851562 -2.054688 0.421875 -3.101562 0.421875 -4.34375 C 0.421875 -5.570312 0.859375 -6.601562 1.734375 -7.4375 C 2.617188 -8.28125 3.703125 -8.703125 4.984375 -8.703125 Z M 4.984375 -8.703125 "/></g></g></g><g fill="#231f20" fill-opacity="1"><g transform="translate(228.137371, 190.540607)"><g><path d="M 8.65625 0 L 7.203125 0 L 7.203125 -3.59375 L 2.609375 -3.59375 L 2.609375 0 L 1.140625 0 L 1.140625 -8.671875 L 2.609375 -8.671875 L 2.609375 -4.90625 L 7.203125 -4.90625 L 7.203125 -8.671875 L 8.65625 -8.671875 Z M 8.65625 0 "/></g></g></g><g fill="#231f20" fill-opacity="1"><g transform="translate(247.85831, 190.540607)"><g><path d="M 8.65625 0 L 7.203125 0 L 7.203125 -3.59375 L 2.609375 -3.59375 L 2.609375 0 L 1.140625 0 L 1.140625 -8.671875 L 2.609375 -8.671875 L 2.609375 -4.90625 L 7.203125 -4.90625 L 7.203125 -8.671875 L 8.65625 -8.671875 Z M 8.65625 0 "/></g></g></g><g fill="#231f20" fill-opacity="1"><g transform="translate(267.579248, 190.540607)"><g><path d="M 6.734375 -1.953125 L 2.359375 -1.953125 L 1.53125 0 L 0.015625 0 L 3.84375 -8.671875 L 5.34375 -8.671875 L 9.125 0 L 7.578125 0 Z M 6.1875 -3.265625 L 4.546875 -7.109375 L 2.90625 -3.265625 Z M 6.1875 -3.265625 "/></g></g></g><g fill="#231f20" fill-opacity="1"><g transform="translate(286.643684, 190.540607)"><g><path d="M 1.140625 -8.671875 L 4.703125 -8.671875 C 5.992188 -8.671875 7.0625 -8.257812 7.90625 -7.4375 C 8.757812 -6.625 9.1875 -5.585938 9.1875 -4.328125 C 9.1875 -3.078125 8.757812 -2.039062 7.90625 -1.21875 C 7.050781 -0.40625 5.96875 0 4.65625 0 L 1.140625 0 Z M 2.609375 -7.359375 L 2.609375 -1.3125 L 4.734375 -1.3125 C 5.585938 -1.3125 6.296875 -1.59375 6.859375 -2.15625 C 7.421875 -2.726562 7.703125 -3.453125 7.703125 -4.328125 C 7.703125 -5.203125 7.410156 -5.925781 6.828125 -6.5 C 6.242188 -7.070312 5.523438 -7.359375 4.671875 -7.359375 Z M 2.609375 -7.359375 "/></g></g></g><g fill="#231f20" fill-opacity="1"><g transform="translate(306.166433, 190.540607)"><g><path d="M 2.609375 0 L 1.140625 0 L 1.140625 -8.671875 L 2.609375 -8.671875 Z M 2.609375 0 "/></g></g></g><g fill="#231f20" fill-opacity="1"><g transform="translate(319.83022, 190.540607)"><g><path d="M 4.703125 -2.890625 L 4.703125 0 L 3.25 0 L 3.25 -2.84375 L 0.015625 -8.671875 L 1.484375 -8.671875 L 3.96875 -4.453125 L 6.390625 -8.671875 L 7.875 -8.671875 Z M 4.703125 -2.890625 "/></g></g></g><g fill="#231f20" fill-opacity="1"><g transform="translate(337.643589, 190.540607)"><g><path d="M 6.734375 -1.953125 L 2.359375 -1.953125 L 1.53125 0 L 0.015625 0 L 3.84375 -8.671875 L 5.34375 -8.671875 L 9.125 0 L 7.578125 0 Z M 6.1875 -3.265625 L 4.546875 -7.109375 L 2.90625 -3.265625 Z M 6.1875 -3.265625 "/></g></g></g></svg>